<svg t="1711615117410" class="icon" viewBox="0 0 1322 1024" version="1.1" xmlns="http://www.w3.org/2000/svg" p-id="16179" width="200" height="200"><path d="M1136.118769 487.044363L670.053222 761.85813V787.201924L204.158341 523.396067v192.190439l465.916215 293.970945v0.042666h0.149332v-0.042666l465.916214-293.970945z" fill="#000000" opacity=".5" p-id="16180"></path><path d="M67.882115 586.648887H43.668979v-181.865189H21.973155V830.038909c0 6.378615 5.162625 11.519906 11.583906 11.519907h34.325054a11.519906 11.519906 0 0 0 11.519907-11.519907V598.190126a11.519906 11.519906 0 0 0-11.519907-11.519906" fill="#000000" p-id="16181"></path><path d="M12.991894 351.045468L649.210725 4.914947a29.141097 29.141097 0 0 1 32.767734 0.255998L1303.456076 351.365465c17.493191 12.117235 16.575865 38.293022-1.770652 49.108934l-617.168319 363.346382c-8.938594 5.290624-20.05317 5.375956-29.141097 0.255998L14.762547 400.687731a29.183763 29.183763 0 0 1-1.770653-49.642263" fill="#000000" p-id="16182"></path></svg>