<svg xmlns="http://www.w3.org/2000/svg" version="1.1" viewBox="0.00 0.00 497.00 166.00" width="497.00" height="166.00">
<path fill="#ffffff" d="&#10;  M 145.04 152.26&#10;  L 152.49 152.25&#10;  Q 153.01 152.25 153.01 151.73&#10;  Q 152.99 122.38 153.00 93.80&#10;  Q 153.00 91.89 154.90 91.22&#10;  Q 155.19 91.12 155.50 91.21&#10;  Q 157.00 91.68 157.00 93.26&#10;  L 157.00 151.73&#10;  Q 157.00 152.37 157.64 152.30&#10;  Q 159.23 152.12 160.68 152.34&#10;  Q 162.14 152.55 162.29 154.02&#10;  Q 162.31 154.22 162.26 154.42&#10;  Q 161.81 156.04 160.12 156.06&#10;  Q 86.79 156.53 23.27 156.07&#10;  Q 19.58 156.04 15.38 155.91&#10;  Q 14.16 155.88 13.45 154.88&#10;  Q 13.14 154.45 13.24 154.00&#10;  Q 13.58 152.35 15.27 152.42&#10;  L 18.21 152.55&#10;  Q 18.75 152.57 18.75 152.04&#10;  L 18.75 92.15&#10;  Q 18.75 90.12 20.77 89.95&#10;  Q 20.99 89.93 21.21 89.98&#10;  Q 22.75 90.29 22.75 91.86&#10;  L 22.75 151.99&#10;  Q 22.75 152.54 23.30 152.53&#10;  Q 34.01 152.43 44.63 152.56&#10;  Q 44.76 152.57 44.78 152.43&#10;  L 44.78 152.42&#10;  Q 44.79 152.35 44.72 152.34&#10;  Q 39.78 151.23 35.19 150.50&#10;  C 30.46 149.75 25.51 147.44 25.52 142.29&#10;  Q 25.52 140.10 26.07 137.28&#10;  Q 35.59 88.29 44.23 43.74&#10;  Q 45.13 39.12 49.60 37.61&#10;  Q 51.91 36.83 55.62 37.58&#10;  Q 64.40 39.36 70.57 40.63&#10;  Q 76.09 41.76 77.27 46.00&#10;  Q 77.71 47.56 77.88 45.94&#10;  Q 78.13 43.52 77.98 40.94&#10;  Q 77.82 38.09 78.49 36.09&#10;  Q 79.63 32.69 82.81 31.29&#10;  Q 84.75 30.44 87.37 30.46&#10;  Q 95.81 30.53 103.43 30.52&#10;  C 109.65 30.52 112.26 34.30 112.26 39.87&#10;  Q 112.26 92.79 112.23 144.32&#10;  C 112.23 147.48 111.25 150.28 108.16 151.82&#10;  Q 107.10 152.34 108.28 152.33&#10;  L 117.72 152.24&#10;  Q 118.20 152.23 117.91 151.85&#10;  Q 115.74 149.11 115.75 145.45&#10;  Q 115.76 86.53 115.76 24.31&#10;  Q 115.76 18.00 120.17 15.94&#10;  Q 122.64 14.79 127.46 14.92&#10;  Q 133.64 15.08 138.80 15.05&#10;  C 144.01 15.03 147.01 18.79 147.01 23.66&#10;  Q 146.99 86.97 147.00 146.43&#10;  Q 147.00 149.63 144.91 151.97&#10;  Q 144.65 152.26 145.04 152.26&#10;  Z&#10;  M 120.04 31.51&#10;  L 142.94 31.51&#10;  A 0.34 0.34 0.0 0 0 143.28 31.17&#10;  L 143.28 23.72&#10;  A 5.11 5.01 0.0 0 0 138.17 18.71&#10;  L 124.81 18.71&#10;  A 5.11 5.01 0.0 0 0 119.70 23.72&#10;  L 119.70 31.17&#10;  A 0.34 0.34 0.0 0 0 120.04 31.51&#10;  Z&#10;  M 82.33 44.98&#10;  L 108.13 45.02&#10;  A 0.39 0.39 0.0 0 0 108.52 44.63&#10;  L 108.53 39.10&#10;  A 5.15 4.88 0.1 0 0 103.39 34.21&#10;  L 87.11 34.19&#10;  A 5.15 4.88 0.1 0 0 81.95 39.06&#10;  L 81.94 44.59&#10;  A 0.39 0.39 0.0 0 0 82.33 44.98&#10;  Z&#10;  M 143.25 35.51&#10;  A 0.26 0.26 0.0 0 0 142.99 35.25&#10;  L 120.01 35.25&#10;  A 0.26 0.26 0.0 0 0 119.75 35.51&#10;  L 119.75 38.59&#10;  A 0.26 0.26 0.0 0 0 120.01 38.85&#10;  L 142.99 38.85&#10;  A 0.26 0.26 0.0 0 0 143.25 38.59&#10;  L 143.25 35.51&#10;  Z&#10;  M 143.25 41.06&#10;  A 0.27 0.27 0.0 0 0 142.98 40.79&#10;  L 120.02 40.79&#10;  A 0.27 0.27 0.0 0 0 119.75 41.06&#10;  L 119.75 125.32&#10;  A 0.27 0.27 0.0 0 0 120.02 125.59&#10;  L 142.98 125.59&#10;  A 0.27 0.27 0.0 0 0 143.25 125.32&#10;  L 143.25 41.06&#10;  Z&#10;  M 47.29 49.65&#10;  L 72.66 54.67&#10;  A 0.33 0.33 0.0 0 0 73.05 54.41&#10;  L 73.93 49.96&#10;  A 4.75 4.60 -78.8 0 0 70.34 44.40&#10;  L 53.35 41.04&#10;  A 4.75 4.60 -78.8 0 0 47.91 44.81&#10;  L 47.03 49.26&#10;  A 0.33 0.33 0.0 0 0 47.29 49.65&#10;  Z&#10;  M 108.50 49.02&#10;  A 0.28 0.28 0.0 0 0 108.22 48.74&#10;  L 82.28 48.74&#10;  A 0.28 0.28 0.0 0 0 82.00 49.02&#10;  L 82.00 51.22&#10;  A 0.28 0.28 0.0 0 0 82.28 51.50&#10;  L 108.22 51.50&#10;  A 0.28 0.28 0.0 0 0 108.50 51.22&#10;  L 108.50 49.02&#10;  Z&#10;  M 55.20 152.37&#10;  Q 55.18 152.37 55.15 152.37&#10;  Q 55.11 152.37 55.07 152.40&#10;  Q 55.01 152.43 55.08 152.46&#10;  Q 55.13 152.47 55.18 152.47&#10;  Q 68.78 152.54 82.25 152.48&#10;  Q 83.13 152.48 82.39 152.01&#10;  C 78.54 149.59 77.96 147.34 77.96 142.98&#10;  Q 78.04 97.88 77.98 53.34&#10;  Q 77.98 52.18 77.63 51.08&#10;  Q 77.36 50.24 77.28 51.12&#10;  C 77.14 52.62 76.99 54.12 76.71 55.60&#10;  Q 67.81 101.29 58.92 146.98&#10;  Q 58.24 150.45 55.30 152.34&#10;  Q 55.25 152.37 55.20 152.37&#10;  Z&#10;  M 72.1836 58.8576&#10;  A 0.30 0.30 0.0 0 0 71.9463 58.5058&#10;  L 46.5811 53.5753&#10;  A 0.30 0.30 0.0 0 0 46.2294 53.8126&#10;  L 45.9164 55.4224&#10;  A 0.30 0.30 0.0 0 0 46.1537 55.7742&#10;  L 71.5189 60.7047&#10;  A 0.30 0.30 0.0 0 0 71.8706 60.4674&#10;  L 72.1836 58.8576&#10;  Z&#10;  M 108.50 53.74&#10;  A 0.27 0.27 0.0 0 0 108.23 53.47&#10;  L 82.27 53.47&#10;  A 0.27 0.27 0.0 0 0 82.00 53.74&#10;  L 82.00 127.00&#10;  A 0.27 0.27 0.0 0 0 82.27 127.27&#10;  L 108.23 127.27&#10;  A 0.27 0.27 0.0 0 0 108.50 127.00&#10;  L 108.50 53.74&#10;  Z&#10;  M 71.3871 63.0132&#10;  A 0.26 0.26 0.0 0 0 71.1815 62.7084&#10;  L 45.6985 57.7550&#10;  A 0.26 0.26 0.0 0 0 45.3937 57.9606&#10;  L 32.3729 124.9468&#10;  A 0.26 0.26 0.0 0 0 32.5785 125.2516&#10;  L 58.0615 130.2050&#10;  A 0.26 0.26 0.0 0 0 58.3663 129.9994&#10;  L 71.3871 63.0132&#10;  Z&#10;  M 57.8773 132.5353&#10;  A 0.41 0.41 0.0 0 0 57.5514 132.0557&#10;  L 32.3459 127.2475&#10;  A 0.41 0.41 0.0 0 0 31.8663 127.5734&#10;  L 31.5627 129.1647&#10;  A 0.41 0.41 0.0 0 0 31.8886 129.6443&#10;  L 57.0941 134.4525&#10;  A 0.41 0.41 0.0 0 0 57.5737 134.1266&#10;  L 57.8773 132.5353&#10;  Z&#10;  M 143.25 127.80&#10;  A 0.28 0.28 0.0 0 0 142.97 127.52&#10;  L 120.03 127.52&#10;  A 0.28 0.28 0.0 0 0 119.75 127.80&#10;  L 119.75 130.72&#10;  A 0.28 0.28 0.0 0 0 120.03 131.00&#10;  L 142.97 131.00&#10;  A 0.28 0.28 0.0 0 0 143.25 130.72&#10;  L 143.25 127.80&#10;  Z&#10;  M 108.50 129.55&#10;  A 0.31 0.31 0.0 0 0 108.19 129.24&#10;  L 82.31 129.24&#10;  A 0.31 0.31 0.0 0 0 82.00 129.55&#10;  L 82.00 131.69&#10;  A 0.31 0.31 0.0 0 0 82.31 132.00&#10;  L 108.19 132.00&#10;  A 0.31 0.31 0.0 0 0 108.50 131.69&#10;  L 108.50 129.55&#10;  Z&#10;  M 56.31 138.21&#10;  L 31.19 133.37&#10;  A 0.48 0.48 0.0 0 0 30.63 133.75&#10;  L 29.31 140.62&#10;  A 4.48 4.47 -79.1 0 0 32.85 145.87&#10;  L 50.13 149.20&#10;  A 4.48 4.47 -79.1 0 0 55.37 145.64&#10;  L 56.69 138.77&#10;  A 0.48 0.48 0.0 0 0 56.31 138.21&#10;  Z&#10;  M 142.96 135.02&#10;  L 120.04 134.98&#10;  A 0.30 0.30 0.0 0 0 119.74 135.28&#10;  L 119.72 145.99&#10;  A 4.77 4.41 -89.9 0 0 124.13 150.77&#10;  L 138.83 150.79&#10;  A 4.77 4.41 -89.9 0 0 143.24 146.03&#10;  L 143.26 135.32&#10;  A 0.30 0.30 0.0 0 0 142.96 135.02&#10;  Z&#10;  M 108.23 135.74&#10;  L 82.25 135.74&#10;  A 0.27 0.27 0.0 0 0 81.98 136.01&#10;  L 81.98 144.52&#10;  A 4.76 4.57 -90.0 0 0 86.55 149.28&#10;  L 103.93 149.28&#10;  A 4.76 4.57 90.0 0 0 108.50 144.52&#10;  L 108.50 136.01&#10;  A 0.27 0.27 0.0 0 0 108.23 135.74&#10;  Z"/>
<rect fill="#ffffff" x="126.23" y="59.41" width="11.34" height="46.22" rx="0.26"/>
<path fill="#ffffff" d="&#10;  M 234.35 71.58&#10;  L 232.95 71.47&#10;  A 1.26 1.24 -18.7 0 1 232.13 71.07&#10;  L 229.43 68.14&#10;  Q 229.13 67.81 229.41 67.48&#10;  L 231.97 64.42&#10;  Q 232.32 64.00 232.86 64.00&#10;  L 241.73 63.99&#10;  A 1.33 1.33 0.0 0 0 242.62 63.65&#10;  C 244.20 62.21 247.02 64.02 248.65 64.72&#10;  Q 249.20 64.96 249.30 65.54&#10;  Q 249.91 68.81 247.60 71.15&#10;  Q 247.20 71.54 246.64 71.56&#10;  Q 244.44 71.64 242.60 72.64&#10;  A 1.49 1.49 0.0 0 0 241.85 73.65&#10;  C 241.35 76.01 240.98 78.82 239.51 80.78&#10;  C 238.70 81.88 239.05 83.40 238.48 84.76&#10;  Q 237.66 86.72 237.31 88.80&#10;  C 237.03 90.50 235.85 91.67 235.20 93.26&#10;  Q 232.75 99.28 231.91 104.68&#10;  Q 231.54 107.12 230.66 109.22&#10;  C 229.62 111.71 230.42 114.41 228.54 116.62&#10;  Q 226.83 118.64 225.88 120.98&#10;  A 1.94 1.94 0.0 0 1 225.26 121.79&#10;  Q 224.43 122.42 224.37 123.40&#10;  Q 224.32 124.08 223.73 124.43&#10;  L 221.15 125.98&#10;  A 1.10 1.09 48.0 0 1 219.91 125.91&#10;  Q 216.96 123.67 217.43 120.84&#10;  Q 217.61 119.81 217.27 118.69&#10;  Q 214.97 111.07 212.09 104.16&#10;  Q 211.91 103.72 211.99 103.24&#10;  Q 212.41 100.70 211.56 98.19&#10;  Q 210.40 94.70 208.20 91.61&#10;  Q 207.87 91.13 207.42 91.50&#10;  Q 204.91 93.59 204.40 95.53&#10;  Q 202.52 102.65 199.64 108.02&#10;  C 198.35 110.41 198.30 113.00 197.04 115.37&#10;  C 196.17 117.02 196.17 118.76 196.31 120.56&#10;  Q 196.37 121.32 195.90 121.92&#10;  L 192.24 126.67&#10;  Q 191.75 127.31 191.15 126.76&#10;  Q 187.58 123.52 187.93 119.91&#10;  Q 188.01 119.13 187.51 118.52&#10;  Q 186.21 116.92 186.30 114.74&#10;  A 2.15 2.14 28.2 0 0 185.88 113.35&#10;  C 184.33 111.29 182.16 109.11 181.78 106.50&#10;  Q 180.71 99.03 176.90 92.13&#10;  Q 174.79 88.31 173.91 84.24&#10;  A 1.98 1.95 13.4 0 0 173.23 83.15&#10;  Q 171.51 81.81 171.50 79.38&#10;  A 1.14 1.05 -64.6 0 0 171.30 78.74&#10;  L 169.48 76.21&#10;  Q 169.20 75.82 168.79 75.57&#10;  Q 166.31 74.10 164.47 71.77&#10;  Q 163.44 70.47 164.90 69.63&#10;  A 0.71 0.70 75.8 0 0 165.26 69.01&#10;  Q 165.23 66.70 167.71 64.95&#10;  Q 168.52 64.37 169.49 64.47&#10;  Q 174.50 64.98 179.22 64.69&#10;  Q 179.79 64.65 180.21 65.03&#10;  Q 182.59 67.14 185.60 68.54&#10;  Q 186.06 68.76 185.95 69.26&#10;  Q 185.86 69.63 185.50 69.82&#10;  A 0.86 0.84 -3.9 0 0 185.15 70.21&#10;  Q 184.44 71.81 183.09 72.48&#10;  Q 182.44 72.79 182.80 73.42&#10;  L 183.01 73.79&#10;  Q 183.26 74.24 183.09 74.73&#10;  Q 182.13 77.48 183.26 79.67&#10;  C 184.63 82.31 185.01 85.02 186.04 87.79&#10;  Q 189.38 96.82 192.86 106.07&#10;  A 0.62 0.62 0.0 0 0 193.96 106.19&#10;  C 194.36 105.56 194.36 104.98 194.85 104.34&#10;  Q 199.40 98.49 199.80 91.01&#10;  Q 199.86 89.79 201.23 86.34&#10;  C 202.25 83.74 203.86 81.74 203.30 78.79&#10;  Q 202.86 76.45 201.47 73.91&#10;  Q 201.22 73.46 200.75 73.22&#10;  L 200.46 73.06&#10;  Q 199.49 72.56 200.33 71.85&#10;  Q 200.78 71.47 200.98 70.94&#10;  A 0.54 0.53 -84.1 0 0 200.40 70.22&#10;  Q 198.59 70.49 197.28 69.18&#10;  Q 196.93 68.83 197.12 68.37&#10;  Q 198.07 66.06 200.26 65.97&#10;  A 1.05 1.03 19.7 0 0 201.02 65.62&#10;  C 202.96 63.46 205.11 64.69 207.49 64.72&#10;  Q 212.11 64.77 216.75 64.77&#10;  A 1.49 1.48 -25.8 0 1 217.66 65.08&#10;  L 220.19 67.05&#10;  Q 220.59 67.36 220.72 67.85&#10;  C 221.73 71.72 217.47 71.16 215.45 72.17&#10;  A 1.34 1.29 -52.2 0 1 214.62 72.29&#10;  Q 212.43 71.93 210.44 72.99&#10;  Q 209.93 73.26 210.31 73.69&#10;  Q 210.67 74.08 211.21 74.01&#10;  A 1.03 1.03 0.0 0 1 212.30 74.63&#10;  Q 212.63 75.39 213.26 75.97&#10;  Q 213.71 76.37 213.71 76.98&#10;  L 213.72 80.01&#10;  A 1.25 1.21 -62.7 0 0 213.93 80.70&#10;  Q 216.49 84.49 217.96 88.77&#10;  C 218.13 89.28 218.56 89.70 218.88 90.10&#10;  Q 219.24 90.54 219.23 91.11&#10;  Q 219.20 92.29 219.23 93.50&#10;  C 219.30 96.07 221.26 99.65 222.49 101.85&#10;  Q 222.77 102.35 222.77 102.93&#10;  L 222.75 104.26&#10;  Q 222.74 105.39 223.74 104.85&#10;  Q 225.27 104.03 226.75 103.97&#10;  Q 227.42 103.94 226.94 103.47&#10;  Q 226.05 102.61 225.80 101.08&#10;  Q 225.68 100.33 225.93 99.62&#10;  C 226.81 97.11 225.92 94.85 227.95 92.66&#10;  A 0.97 0.94 -23.7 0 0 228.22 92.00&#10;  Q 228.23 89.86 229.73 88.35&#10;  Q 230.71 87.35 231.11 86.06&#10;  Q 231.76 83.91 231.92 81.96&#10;  C 232.15 79.25 233.04 76.82 233.38 74.06&#10;  A 1.04 1.03 -10.0 0 1 233.94 73.27&#10;  Q 234.50 72.97 234.80 72.36&#10;  Q 235.14 71.64 234.35 71.58&#10;  Z"/>
<path fill="#ffffff" d="&#10;  M 396.78 113.17&#10;  Q 396.59 117.72 393.34 120.39&#10;  Q 392.95 120.71 392.85 121.20&#10;  Q 392.72 121.83 392.13 122.11&#10;  Q 391.52 122.39 391.69 123.04&#10;  C 392.12 124.62 391.08 125.77 389.54 125.76&#10;  Q 384.22 125.72 378.99 125.77&#10;  Q 378.41 125.78 377.91 125.50&#10;  Q 376.92 124.96 376.01 125.47&#10;  A 2.32 2.26 29.2 0 1 374.93 125.76&#10;  C 373.37 125.77 371.97 125.93 370.46 125.29&#10;  C 368.29 124.37 366.91 125.37 365.01 126.38&#10;  Q 364.49 126.65 363.95 126.43&#10;  Q 361.79 125.59 359.46 125.56&#10;  A 1.02 1.01 79.6 0 1 358.53 124.91&#10;  Q 358.10 123.81 357.06 124.38&#10;  Q 352.56 126.88 349.08 126.49&#10;  Q 348.39 126.41 348.54 127.09&#10;  Q 348.64 127.51 348.33 127.77&#10;  Q 347.76 128.23 347.46 127.56&#10;  Q 347.36 127.33 347.36 127.08&#10;  Q 347.36 126.49 346.77 126.49&#10;  L 340.89 126.51&#10;  Q 340.38 126.51 340.01 126.17&#10;  C 338.49 124.79 337.06 121.92 338.74 120.04&#10;  Q 340.12 118.48 341.74 118.75&#10;  Q 342.49 118.88 342.44 118.12&#10;  Q 342.43 117.96 342.41 117.81&#10;  Q 342.33 117.34 342.80 117.39&#10;  C 346.24 117.75 351.33 118.29 351.63 113.38&#10;  Q 351.74 111.61 353.39 110.89&#10;  Q 353.89 110.66 353.45 110.33&#10;  Q 351.51 108.90 351.51 106.57&#10;  Q 351.49 94.26 351.51 79.72&#10;  A 1.19 1.18 22.2 0 0 351.15 78.87&#10;  L 350.91 78.63&#10;  Q 350.63 78.35 350.82 78.00&#10;  Q 352.04 75.77 351.36 72.83&#10;  A 2.70 2.70 0.0 0 0 348.73 70.75&#10;  L 343.54 70.75&#10;  A 0.91 0.91 0.0 0 1 342.75 70.29&#10;  L 341.97 68.89&#10;  A 3.04 3.04 0.0 0 1 344.40 64.37&#10;  Q 348.37 64.08 353.04 64.35&#10;  Q 353.66 64.39 353.68 63.76&#10;  Q 353.69 63.59 353.77 63.44&#10;  Q 353.94 63.15 354.25 63.06&#10;  Q 356.09 62.51 357.01 63.86&#10;  Q 357.29 64.26 357.77 64.26&#10;  L 367.02 64.25&#10;  A 1.21 1.19 -9.5 0 1 368.16 65.05&#10;  Q 368.94 67.22 369.07 69.63&#10;  Q 369.13 70.53 368.23 70.63&#10;  L 365.56 70.91&#10;  Q 365.08 70.96 364.75 71.32&#10;  Q 364.64 71.44 364.55 71.57&#10;  Q 364.43 71.74 364.29 71.60&#10;  Q 363.46 70.83 362.17 70.94&#10;  Q 361.52 70.99 361.52 71.63&#10;  L 361.47 76.00&#10;  Q 361.46 76.66 362.06 76.41&#10;  Q 362.53 76.21 362.74 76.99&#10;  Q 363.16 78.56 362.00 78.84&#10;  Q 361.50 78.96 361.50 79.47&#10;  L 361.49 81.42&#10;  Q 361.49 81.86 361.87 82.09&#10;  Q 364.24 83.55 363.01 85.73&#10;  Q 362.74 86.20 362.74 86.74&#10;  Q 362.76 98.69 362.74 110.63&#10;  Q 362.74 112.25 363.20 113.47&#10;  Q 363.82 115.10 363.40 117.12&#10;  Q 363.24 117.89 363.99 117.67&#10;  L 364.95 117.38&#10;  Q 365.60 117.19 365.83 117.83&#10;  Q 366.00 118.32 366.36 118.68&#10;  Q 366.86 119.18 367.15 118.53&#10;  Q 367.22 118.37 367.23 118.21&#10;  Q 367.27 117.50 367.98 117.50&#10;  L 371.08 117.50&#10;  Q 371.67 117.49 371.75 118.08&#10;  L 371.80 118.45&#10;  Q 371.92 119.32 372.59 118.75&#10;  Q 372.93 118.46 373.03 118.02&#10;  Q 373.17 117.49 373.72 117.49&#10;  L 377.74 117.50&#10;  A 1.85 1.81 28.9 0 0 378.75 117.22&#10;  Q 382.10 115.18 385.98 115.85&#10;  Q 386.60 115.95 386.95 115.43&#10;  L 389.86 111.13&#10;  Q 390.16 110.68 390.64 110.40&#10;  Q 391.71 109.80 392.01 108.70&#10;  Q 392.17 108.13 392.76 108.18&#10;  Q 394.96 108.36 395.88 110.55&#10;  Q 396.03 110.90 396.39 110.79&#10;  Q 396.93 110.62 396.93 110.05&#10;  C 396.92 106.87 396.12 103.27 397.53 100.31&#10;  Q 399.02 97.17 401.15 94.08&#10;  C 404.52 89.18 412.28 87.18 417.87 87.04&#10;  C 419.09 87.01 422.00 87.55 423.00 88.21&#10;  Q 427.95 91.48 429.98 95.57&#10;  Q 431.13 97.90 432.17 100.31&#10;  A 2.68 2.66 -84.1 0 0 433.10 101.46&#10;  Q 434.23 102.24 434.79 103.44&#10;  A 1.74 1.72 41.1 0 1 434.88 104.67&#10;  Q 434.26 106.72 435.06 108.74&#10;  Q 435.33 109.41 435.06 110.07&#10;  Q 433.29 114.55 431.15 118.54&#10;  Q 430.60 119.55 429.42 119.83&#10;  Q 428.63 120.02 428.19 120.70&#10;  Q 427.79 121.32 427.66 122.10&#10;  Q 427.57 122.66 427.09 122.96&#10;  Q 423.62 125.10 418.94 126.32&#10;  Q 414.92 127.36 411.11 126.46&#10;  Q 403.13 124.57 399.10 117.43&#10;  C 398.33 116.05 397.69 114.59 397.11 113.12&#10;  Q 396.81 112.37 396.78 113.17&#10;  Z&#10;  M 405.70 101.00&#10;  L 404.64 103.20&#10;  Q 404.46 103.59 404.65 103.98&#10;  Q 406.11 106.93 405.84 110.41&#10;  Q 405.69 112.35 406.29 114.11&#10;  C 408.51 120.68 411.09 123.80 418.61 121.59&#10;  C 421.11 120.85 422.73 118.18 423.30 115.77&#10;  Q 426.05 104.22 422.19 93.88&#10;  A 1.74 1.65 8.8 0 0 421.57 93.08&#10;  Q 412.97 87.06 406.77 95.82&#10;  Q 405.71 97.32 404.55 98.45&#10;  Q 404.25 98.74 404.47 99.08&#10;  Q 404.86 99.69 405.46 100.12&#10;  Q 405.95 100.46 405.70 101.00&#10;  Z"/>
<path fill="#ffffff" d="&#10;  M 310.19 122.83&#10;  Q 310.14 124.39 309.08 125.89&#10;  Q 308.79 126.31 308.27 126.33&#10;  Q 304.31 126.53 300.03 126.92&#10;  Q 298.83 127.02 295.17 125.97&#10;  A 0.87 0.86 -83.7 0 1 294.56 125.20&#10;  C 294.45 123.32 295.73 121.11 297.92 121.52&#10;  Q 298.66 121.65 299.41 121.71&#10;  Q 299.88 121.74 300.09 121.31&#10;  Q 301.11 119.19 300.55 117.00&#10;  C 300.06 115.05 300.91 113.75 300.65 111.91&#10;  Q 299.92 106.67 299.59 101.84&#10;  Q 299.50 100.55 300.22 99.32&#10;  Q 300.51 98.84 300.41 98.28&#10;  Q 299.46 93.01 299.55 87.03&#10;  C 299.57 85.95 299.98 84.81 300.24 83.76&#10;  Q 300.38 83.18 299.83 82.93&#10;  Q 299.49 82.78 299.41 82.43&#10;  Q 299.32 82.06 299.41 81.70&#10;  Q 300.02 79.36 299.77 77.40&#10;  Q 299.61 76.22 299.73 75.00&#10;  Q 299.89 73.37 298.76 72.26&#10;  Q 298.36 71.86 297.83 72.07&#10;  Q 293.88 73.57 291.56 70.49&#10;  Q 290.24 68.72 292.01 66.97&#10;  C 292.95 66.04 294.08 66.21 295.27 66.04&#10;  A 1.85 1.83 -66.6 0 0 296.14 65.69&#10;  Q 297.35 64.82 298.97 64.80&#10;  Q 304.29 64.72 309.46 64.75&#10;  Q 310.00 64.75 310.22 65.26&#10;  Q 311.06 67.22 309.87 68.88&#10;  Q 309.61 69.25 309.91 69.57&#10;  L 310.12 69.80&#10;  Q 310.51 70.21 310.42 70.77&#10;  C 310.03 73.12 309.54 75.39 309.61 77.78&#10;  Q 309.80 84.23 309.53 90.69&#10;  Q 309.50 91.35 310.12 91.13&#10;  Q 310.70 90.92 311.34 90.96&#10;  Q 311.86 90.99 312.20 90.60&#10;  C 313.48 89.15 316.89 86.79 319.13 87.24&#10;  Q 321.14 87.64 323.48 87.05&#10;  Q 324.06 86.91 324.58 87.17&#10;  C 326.89 88.33 329.10 89.24 330.58 91.59&#10;  C 331.94 93.77 333.98 95.37 335.00 97.79&#10;  Q 338.43 105.97 334.89 115.21&#10;  C 332.30 121.98 327.07 126.40 319.91 126.53&#10;  Q 319.04 126.54 318.32 126.04&#10;  Q 317.17 125.24 316.19 126.09&#10;  Q 315.73 126.48 315.25 126.13&#10;  L 310.53 122.66&#10;  Q 310.21 122.43 310.19 122.83&#10;  Z&#10;  M 325.42 102.09&#10;  L 325.73 101.60&#10;  Q 325.93 101.27 325.87 100.90&#10;  Q 325.11 96.23 322.16 92.67&#10;  A 1.10 1.09 74.3 0 0 321.47 92.28&#10;  L 317.95 91.76&#10;  Q 317.45 91.69 317.01 91.92&#10;  Q 310.68 95.22 309.79 101.38&#10;  Q 309.09 106.23 310.40 111.30&#10;  Q 310.53 111.81 310.30 112.28&#10;  L 309.96 113.00&#10;  Q 309.71 113.52 309.88 114.08&#10;  L 310.78 117.09&#10;  Q 310.96 117.67 311.45 118.03&#10;  Q 312.91 119.07 312.28 120.60&#10;  Q 312.06 121.11 312.61 121.21&#10;  Q 314.49 121.57 316.55 122.02&#10;  Q 319.16 122.59 322.65 121.56&#10;  Q 323.15 121.41 323.42 120.96&#10;  Q 326.83 115.04 325.42 109.15&#10;  Q 325.28 108.59 325.52 108.06&#10;  Q 326.65 105.55 325.38 103.06&#10;  Q 325.13 102.56 325.42 102.09&#10;  Z"/>
<rect fill="#ffffff" x="89.31" y="69.54" width="12.68" height="40.44" rx="0.27"/>
<rect fill="#ffffff" x="-6.33" y="-18.82" transform="translate(52.47,93.46) rotate(11.0)" width="12.66" height="37.64" rx="0.27"/>
<path fill="#ffffff" d="&#10;  M 471.12 91.90&#10;  Q 471.21 93.00 471.95 93.90&#10;  Q 472.24 94.25 472.10 94.68&#10;  Q 471.56 96.36 472.13 98.20&#10;  Q 472.31 98.79 471.95 99.28&#10;  Q 470.98 100.59 471.56 102.04&#10;  Q 471.74 102.50 471.64 102.98&#10;  Q 471.22 105.07 469.95 106.88&#10;  A 0.89 0.87 17.2 0 1 469.23 107.25&#10;  Q 468.32 107.24 468.11 108.12&#10;  Q 467.97 108.69 467.50 109.04&#10;  Q 459.35 115.22 450.48 111.29&#10;  Q 449.36 110.80 448.91 111.93&#10;  Q 448.83 112.13 448.83 112.34&#10;  Q 448.82 113.04 448.14 113.21&#10;  Q 446.33 113.66 444.89 115.33&#10;  A 0.98 0.97 56.1 0 0 444.71 116.28&#10;  C 447.06 123.19 456.94 116.30 461.83 118.82&#10;  A 1.45 1.38 -33.1 0 0 462.65 118.97&#10;  Q 465.03 118.71 467.47 118.09&#10;  Q 469.59 117.55 471.52 118.45&#10;  Q 474.52 119.85 475.93 121.80&#10;  Q 476.90 123.15 478.33 124.23&#10;  A 0.84 0.83 -80.7 0 1 478.60 124.61&#10;  L 479.34 126.65&#10;  Q 479.52 127.16 479.44 127.70&#10;  C 479.12 129.94 479.74 132.00 479.06 134.20&#10;  C 478.36 136.48 478.13 138.46 476.73 140.56&#10;  C 475.91 141.78 475.29 143.06 474.00 143.88&#10;  Q 467.78 147.78 461.52 149.20&#10;  C 459.39 149.69 457.43 148.81 455.91 147.49&#10;  Q 455.63 147.25 455.41 147.55&#10;  Q 454.52 148.75 452.73 148.75&#10;  Q 446.55 148.73 442.39 145.26&#10;  C 440.26 143.47 439.52 140.49 438.41 138.01&#10;  Q 438.21 137.55 438.35 137.07&#10;  Q 439.68 132.81 442.87 129.85&#10;  Q 443.99 128.81 443.92 127.22&#10;  Q 443.89 126.68 443.43 126.40&#10;  Q 439.73 124.11 438.36 119.94&#10;  A 1.32 1.30 50.8 0 1 438.46 118.89&#10;  Q 439.53 116.99 439.51 114.91&#10;  Q 439.50 114.48 439.91 114.33&#10;  Q 440.42 114.14 440.74 113.70&#10;  Q 442.42 111.34 444.66 109.69&#10;  Q 444.99 109.45 445.02 109.04&#10;  Q 445.12 107.82 444.16 107.09&#10;  Q 443.74 106.77 443.57 106.28&#10;  Q 442.33 102.86 441.23 99.15&#10;  Q 440.67 97.26 441.25 95.25&#10;  C 442.36 91.36 445.05 90.16 447.51 87.45&#10;  C 448.84 85.98 452.19 84.05 454.17 84.02&#10;  Q 458.38 83.95 462.26 85.15&#10;  C 464.13 85.73 464.88 87.13 466.54 87.93&#10;  Q 467.02 88.17 467.37 87.77&#10;  Q 469.10 85.81 472.22 84.12&#10;  C 475.14 82.55 477.61 83.99 479.17 86.64&#10;  Q 479.39 87.01 479.27 87.42&#10;  Q 478.75 89.26 479.72 91.18&#10;  Q 480.03 91.79 479.51 92.24&#10;  C 477.08 94.36 474.21 92.54 471.84 91.41&#10;  Q 471.06 91.04 471.12 91.90&#10;  Z&#10;  M 460.99 90.40&#10;  L 457.12 88.43&#10;  Q 456.60 88.16 456.09 88.46&#10;  L 451.68 91.06&#10;  Q 451.11 91.40 451.28 92.04&#10;  Q 451.87 94.18 450.65 96.20&#10;  A 2.38 2.36 -40.3 0 0 450.47 98.28&#10;  Q 451.53 101.01 451.06 103.88&#10;  Q 450.97 104.42 451.18 104.93&#10;  C 452.80 108.94 456.78 110.32 460.32 107.71&#10;  C 461.72 106.67 462.35 104.61 463.01 103.04&#10;  Q 463.88 100.97 463.10 98.24&#10;  Q 462.91 97.54 463.10 96.84&#10;  Q 463.24 96.30 463.06 95.77&#10;  L 461.34 90.80&#10;  A 0.70 0.68 4.7 0 0 460.99 90.40&#10;  Z&#10;  M 471.12 137.34&#10;  Q 472.09 136.10 473.03 134.89&#10;  Q 473.35 134.47 473.16 133.97&#10;  Q 472.22 131.51 472.57 128.92&#10;  A 0.76 0.76 0.0 0 0 472.24 128.19&#10;  C 469.17 126.11 466.22 126.34 462.85 127.01&#10;  C 459.98 127.58 452.53 125.82 450.83 128.79&#10;  Q 450.43 129.48 449.91 130.12&#10;  Q 447.95 132.51 447.29 135.81&#10;  Q 447.18 136.32 446.77 136.64&#10;  L 446.55 136.81&#10;  Q 446.10 137.17 446.50 137.59&#10;  C 448.49 139.68 449.20 141.78 451.97 143.37&#10;  Q 453.71 144.37 455.59 144.32&#10;  Q 458.80 144.25 461.68 144.03&#10;  Q 462.05 144.00 462.41 144.14&#10;  Q 462.67 144.25 462.83 144.47&#10;  Q 463.19 144.96 463.66 144.58&#10;  Q 468.42 140.78 471.12 137.34&#10;  Z"/>
<path fill="#ffffff" d="&#10;  M 280.43 114.83&#10;  C 278.99 112.71 281.49 110.35 282.99 109.02&#10;  Q 283.46 108.61 284.03 108.86&#10;  Q 285.95 109.71 287.52 111.14&#10;  Q 287.87 111.47 287.90 111.94&#10;  Q 288.05 114.20 286.49 114.83&#10;  Q 286.00 115.03 285.94 115.56&#10;  C 285.62 118.36 284.82 120.96 282.33 122.59&#10;  Q 274.74 127.59 265.93 126.89&#10;  C 261.39 126.53 255.73 124.49 254.54 119.69&#10;  Q 254.01 117.58 252.52 115.99&#10;  Q 251.73 115.15 251.58 114.09&#10;  Q 250.95 109.61 251.93 104.86&#10;  Q 252.02 104.42 251.89 103.99&#10;  L 251.35 102.16&#10;  Q 251.21 101.66 251.43 101.19&#10;  Q 252.32 99.37 251.57 97.18&#10;  A 1.35 1.35 0.0 0 1 251.76 95.94&#10;  Q 255.93 90.31 261.22 87.12&#10;  C 263.69 85.63 266.96 86.65 269.77 86.43&#10;  C 275.60 85.99 279.48 89.54 283.88 93.00&#10;  Q 285.57 94.34 286.47 96.49&#10;  Q 288.49 101.29 288.81 102.94&#10;  Q 289.23 105.11 287.12 107.20&#10;  Q 286.76 107.56 286.26 107.47&#10;  Q 278.11 106.05 270.71 105.79&#10;  C 268.05 105.69 260.53 105.79 259.15 108.06&#10;  Q 258.81 108.61 259.45 108.76&#10;  Q 260.01 108.89 260.49 109.19&#10;  A 1.18 1.18 0.0 0 1 261.04 110.35&#10;  Q 260.36 115.41 264.25 119.36&#10;  Q 264.76 119.88 265.49 119.99&#10;  Q 267.63 120.33 268.83 121.82&#10;  Q 269.31 122.42 270.06 122.26&#10;  C 274.25 121.38 277.23 118.81 280.31 115.93&#10;  Q 280.84 115.43 280.43 114.83&#10;  Z&#10;  M 261.63 96.62&#10;  Q 260.74 98.46 261.07 100.47&#10;  Q 261.24 101.58 262.37 101.64&#10;  C 265.30 101.81 268.59 102.07 271.45 101.29&#10;  Q 273.10 100.84 274.98 101.26&#10;  Q 278.81 102.12 276.56 98.92&#10;  Q 274.95 96.63 274.31 93.79&#10;  Q 274.17 93.19 273.64 92.85&#10;  C 270.56 90.85 266.15 89.11 263.26 92.31&#10;  C 262.05 93.65 262.35 95.12 261.63 96.62&#10;  Z"/>
</svg>